<?xml version="1.0" standalone="no"?>
<!DOCTYPE svg PUBLIC "-//W3C//DTD SVG 20010904//EN"
 "http://www.w3.org/TR/2001/REC-SVG-20010904/DTD/svg10.dtd">
<svg version="1.0" xmlns="http://www.w3.org/2000/svg"
 width="300.000000pt" height="32.000000pt" viewBox="0 0 300.000000 32.000000"
 preserveAspectRatio="xMidYMid meet">
<metadata>
Created by potrace 1.10, written by Peter Selinger 2001-2011
</metadata>
<g transform="translate(0.000000,32.000000) scale(0.100000,-0.100000)"
fill="#000000" stroke="none">
<path d="M152 303 c9 -10 25 -39 37 -65 12 -27 25 -48 29 -48 4 0 22 29 40 65
29 59 30 65 13 65 -12 0 -25 -12 -33 -30 -7 -16 -16 -30 -19 -30 -4 0 -12 14
-19 30 -9 22 -19 30 -38 30 -23 0 -24 -1 -10 -17z"/>
<path d="M390 215 c-28 -58 -54 -105 -60 -105 -18 0 -11 29 25 100 19 38 35
72 35 75 0 4 -19 5 -42 3 -42 -3 -42 -4 -87 -87 l-44 -84 -44 86 -43 87 -43 0
-43 0 38 -81 c30 -62 36 -84 27 -93 -7 -7 -13 -7 -15 -1 -2 6 -24 53 -49 105
-44 93 -45 94 -45 53 0 -30 11 -60 39 -110 32 -56 43 -68 64 -68 20 1 32 -10
54 -47 15 -26 34 -48 41 -48 6 0 12 2 12 5 0 3 -26 56 -57 119 -31 64 -53 119
-49 123 10 9 12 5 70 -101 l43 -78 42 78 c23 44 49 85 56 93 34 35 22 -5 -35
-119 -48 -95 -57 -121 -43 -118 10 2 28 22 41 46 17 30 30 42 46 42 29 0 56
31 89 103 15 31 29 57 31 57 2 0 21 -44 42 -97 20 -54 44 -106 52 -115 19 -23
89 -24 113 -2 16 15 20 15 41 0 23 -17 88 -22 88 -8 0 5 11 14 25 20 22 10 30
9 56 -10 25 -19 41 -22 96 -20 47 3 75 9 95 23 15 11 28 15 28 9 0 -18 66 -41
91 -31 13 4 41 4 63 -1 44 -10 124 -3 169 14 21 8 31 8 40 -1 17 -17 63 -13
99 9 32 19 32 19 66 -2 42 -26 155 -27 183 -2 15 13 20 13 52 -6 42 -25 91
-20 107 10 6 10 10 68 10 129 0 107 -1 110 -27 130 -24 19 -28 20 -47 6 -41
-29 -56 -36 -56 -26 0 18 -58 42 -84 35 -41 -10 -62 -43 -65 -104 -1 -8 -12 8
-25 35 -42 91 -109 97 -155 16 l-24 -44 -31 37 c-55 64 -155 85 -226 47 -33
-18 -36 -18 -75 0 -84 39 -205 12 -205 -45 0 -39 -18 -40 -34 -2 -26 61 -86
80 -129 40 -28 -26 -28 -26 -50 -7 -40 36 -56 36 -93 -1 -19 -19 -34 -42 -34
-52 -1 -13 -5 -9 -14 11 -20 45 -49 66 -101 70 l-46 5 -49 -105z m176 -20 c14
-47 28 -85 30 -85 1 0 14 38 29 85 25 84 26 85 59 85 l33 0 -45 -119 -45 -119
-33 1 c-32 1 -33 2 -77 119 l-44 118 33 0 c33 0 34 -1 60 -85z m335 -20 c57
-145 55 -135 19 -135 -23 0 -33 6 -40 25 -8 22 -16 25 -55 25 -39 0 -47 -3
-55 -25 -7 -19 -17 -25 -41 -25 -21 0 -29 4 -26 12 3 7 24 62 47 121 l42 108
35 -3 c35 -3 36 -4 74 -103z m259 85 c12 -12 20 -33 20 -55 0 -22 -8 -43 -20
-55 -25 -25 -25 -25 5 -64 14 -18 25 -36 25 -39 0 -4 -15 -7 -34 -7 -30 0 -37
6 -60 45 -17 29 -34 45 -46 45 -17 0 -20 -7 -20 -45 0 -43 -1 -45 -30 -45
l-30 0 0 120 0 120 85 0 c72 0 88 -3 105 -20z m229 5 c37 -19 55 -64 48 -122
-7 -69 -39 -93 -122 -93 -35 0 -70 -3 -79 -6 -14 -5 -16 9 -16 115 l0 121 70
0 c43 0 82 -6 99 -15z m267 -105 c24 -63 44 -116 44 -117 0 -2 -14 -3 -30 -3
-23 0 -33 6 -42 25 -17 37 -94 37 -108 0 -7 -19 -17 -25 -40 -25 -16 0 -30 2
-30 5 0 2 17 49 38 102 22 54 42 106 45 116 5 14 15 17 43 15 l36 -3 44 -115z
m174 49 c19 -39 39 -73 44 -76 4 -3 7 28 4 71 l-3 76 27 0 28 0 0 -118 0 -119
-36 1 c-35 2 -38 5 -80 86 l-44 85 3 -85 2 -85 -27 -3 -28 -3 0 120 0 121 38
0 c37 0 39 -1 72 -71z"/>
<path d="M812 191 c-17 -47 -15 -51 13 -51 28 0 30 11 11 55 l-12 30 -12 -34z"/>
<path d="M1030 202 c0 -28 1 -28 43 -23 33 5 42 10 42 26 0 16 -8 21 -42 23
-41 3 -43 2 -43 -26z"/>
<path d="M1277 163 l1 -68 39 3 c45 4 63 23 63 68 0 43 -23 64 -68 64 l-37 0
2 -67z m63 3 c0 -23 -18 -48 -21 -29 -7 40 -5 53 7 53 8 0 14 -10 14 -24z"/>
<path d="M1558 181 l-16 -41 29 0 c32 0 33 1 15 49 l-12 34 -16 -42z"/>
<path d="M2156 305 c-13 -10 -24 -11 -37 -5 -30 17 -67 11 -83 -12 -12 -17
-16 -49 -16 -129 0 -91 3 -108 19 -123 10 -9 27 -17 37 -16 11 0 44 1 74 1 32
0 64 6 78 15 22 14 25 14 43 -1 11 -11 33 -17 56 -16 68 2 87 2 132 -5 52 -8
144 11 162 32 10 13 15 12 35 -7 20 -19 34 -22 91 -20 46 1 77 8 98 21 30 18
31 18 60 0 41 -25 88 -30 93 -9 2 13 -4 16 -28 13 -25 -3 -32 1 -40 21 -8 22
-16 25 -55 25 -38 0 -47 -4 -54 -23 -6 -16 -18 -23 -40 -25 -17 -1 -31 -1 -31
0 0 2 20 55 44 118 l44 115 37 0 37 0 42 -110 41 -110 3 47 c4 59 -54 188 -92
206 -46 20 -77 2 -118 -72 l-18 -31 0 26 c0 31 -31 74 -59 82 -11 2 -30 -5
-46 -17 l-27 -22 -46 23 c-53 27 -128 31 -171 9 -17 -9 -32 -11 -42 -5 -22 14
-65 11 -79 -6 -16 -20 -27 -19 -57 5 -30 23 -60 25 -87 5z m-46 -145 l0 -120
-30 0 -30 0 0 120 0 120 30 0 30 0 0 -120z m160 45 c19 -41 38 -75 41 -75 3 0
4 34 1 75 l-5 75 32 0 31 0 0 -119 0 -120 -37 3 c-36 2 -39 5 -80 86 l-43 84
0 -88 0 -87 -26 3 -26 3 -2 118 -1 117 40 0 41 0 34 -75z m320 60 c53 -28 65
-132 21 -187 -17 -20 -31 -24 -103 -29 -45 -3 -86 -4 -90 -2 -5 2 -8 56 -8
119 l0 114 75 0 c48 0 87 -6 105 -15z m140 -105 l0 -120 -30 0 -30 0 0 120 0
120 30 0 30 0 0 -120z"/>
<path d="M2470 159 l0 -71 43 7 c54 9 62 17 62 64 0 52 -19 71 -66 71 l-39 0
0 -71z m64 14 c4 -9 0 -23 -9 -32 -13 -14 -15 -12 -15 17 0 34 14 43 24 15z"/>
<path d="M2858 180 l-16 -40 29 0 c33 0 34 5 16 49 l-14 32 -15 -41z"/>
</g>
</svg>
